HIERARCHY
ROOT SpineBase
{
  OFFSET 0.000000 0.000000 0.000000
  CHANNELS 6 Xposition Yposition Zposition Zrotation Xrotation Yrotation
  JOINT SpineMid
  {
    OFFSET 0.000000 29.417430 0.000000
    CHANNELS 3 Zrotation Xrotation Yrotation
    JOINT SpineShoulder
    {
      OFFSET 0.161562 21.754129 -0.561435
      CHANNELS 3 Zrotation Xrotation Yrotation
      JOINT Neck
      {
        OFFSET 0.089064 7.179302 -0.543436
        CHANNELS 3 Zrotation Xrotation Yrotation
        JOINT Head
        {
          OFFSET 6.203547 13.153029 1.428402
          CHANNELS 3 Zrotation Xrotation Yrotation
          End Site
          {
            OFFSET 0 0 0
          }
        }
      }
      JOINT ShoulderLeft
      {
        OFFSET -9.208804 -2.551200 -12.491477
        CHANNELS 3 Zrotation Xrotation Yrotation
        JOINT ElbowLeft
        {
          OFFSET -4.487512 -24.116720 -4.821442
          CHANNELS 3 Zrotation Xrotation Yrotation
          JOINT WristLeft
          {
            OFFSET 4.842328 -22.442179 -1.867937
            CHANNELS 3 Zrotation Xrotation Yrotation
            JOINT HandLeft
            {
              OFFSET 0.935563 -5.242999 0.602924
              CHANNELS 3 Zrotation Xrotation Yrotation
              JOINT HandTipLeft
              {
                OFFSET 1.020225 -6.758697 0.842456
                CHANNELS 3 Zrotation Xrotation Yrotation
                End Site
                {
                  OFFSET 0 0 0
                }
              }
              JOINT ThumbLeft
              {
                OFFSET 3.114392 1.847213 0.259926
                CHANNELS 3 Zrotation Xrotation Yrotation
                End Site
                {
                  OFFSET 0 0 0
                }
              }
            }
          }
        }
      }
      JOINT ShoulderRight
      {
        OFFSET 11.084508 -4.305506 12.352953
        CHANNELS 3 Zrotation Xrotation Yrotation
        JOINT ElbowRight
        {
          OFFSET 1.112413 -26.807477 5.979209
          CHANNELS 3 Zrotation Xrotation Yrotation
          JOINT WristRight
          {
            OFFSET 0.117440 -24.551358 0.432411
            CHANNELS 3 Zrotation Xrotation Yrotation
            JOINT HandRight
            {
              OFFSET 0.968208 -3.406841 -5.462131
              CHANNELS 3 Zrotation Xrotation Yrotation
              JOINT HandTipRight
              {
                OFFSET -2.142265 -4.471302 -1.811931
                CHANNELS 3 Zrotation Xrotation Yrotation
                End Site
                {
                  OFFSET 0 0 0
                }
              }
              JOINT ThumbRight
              {
                OFFSET 0.779730 2.496042 -2.122603
                CHANNELS 3 Zrotation Xrotation Yrotation
                End Site
                {
                  OFFSET 0 0 0
                }
              }
            }
          }
        }
      }
    }
  }
  JOINT HipLeft
  {
    OFFSET -4.353881 1.716348 -8.236851
    CHANNELS 3 Zrotation Xrotation Yrotation
    JOINT KneeLeft
    {
      OFFSET -7.010433 -27.725062 3.207531
      CHANNELS 3 Zrotation Xrotation Yrotation
      JOINT AnkleLeft
      {
        OFFSET -5.481299 -33.038298 6.707462
        CHANNELS 3 Zrotation Xrotation Yrotation
        JOINT FootLeft
        {
          OFFSET 4.896372 -7.000937 -0.747856
          CHANNELS 3 Zrotation Xrotation Yrotation
          End Site
          {
            OFFSET 0 0 0
          }
        }
      }
    }
  }
  JOINT HipRight
  {
    OFFSET 4.955423 0.091319 1.335554
    CHANNELS 3 Zrotation Xrotation Yrotation
    JOINT KneeRight
    {
      OFFSET -1.892663 -26.916586 8.503338
      CHANNELS 3 Zrotation Xrotation Yrotation
      JOINT AnkleRight
      {
        OFFSET -9.764861 -32.590731 2.148361
        CHANNELS 3 Zrotation Xrotation Yrotation
        JOINT FootRight
        {
          OFFSET 1.517657 -8.169269 -5.092983
          CHANNELS 3 Zrotation Xrotation Yrotation
          End Site
          {
            OFFSET 0 0 0
          }
        }
      }
    }
  }
}
MOTION
Frames: 14
Frame Time: 0.033333
-28.905128 67.702922 327.376102 5.862502 -8.213728 -31.497217 1.190431 -0.092523 32.128163 0.213443 -0.038470 0.383672 31.668184 0.847784 -4.908612 0.000000 0.000000 0.000000 6.612052 6.823871 -4.373148 -0.383161 -3.591188 0.583091 -2.888747 -11.416253 1.503954 16.139705 25.278149 -1.784971 0.000000 0.000000 0.000000 0.000000 0.000000 0.000000 94.833260 -6.905765 25.757737 145.897486 15.170503 71.524716 63.979399 -33.681710 57.783029 18.088879 53.477839 -50.051495 0.000000 0.000000 0.000000 0.000000 0.000000 0.000000 -4.274834 16.508016 30.514862 -14.708946 -6.011317 -1.584372 8.804009 -2.294170 0.697116 0.000000 0.000000 0.000000 -2.788245 7.921319 33.990250 -9.484753 5.419955 -3.945705 15.501323 14.481100 -3.888660 0.000000 0.000000 0.000000
-29.069361 67.481226 327.519971 6.074751 -8.673564 -28.019398 1.207176 -0.366711 28.714474 0.135648 -0.132713 0.399645 30.232297 0.969011 -4.455378 0.000000 0.000000 0.000000 7.337214 7.759056 -4.854332 -1.610069 -5.140850 0.724014 -3.231992 -11.079161 1.401820 14.116934 24.562861 -1.136264 0.000000 0.000000 0.000000 0.000000 0.000000 0.000000 96.544574 -7.972664 26.829168 145.695067 12.350768 70.376347 67.367727 -29.775868 54.414104 -5.067905 61.050720 -33.139045 0.000000 0.000000 0.000000 0.000000 0.000000 0.000000 -3.525360 17.674491 26.801393 -15.328028 -6.250742 -1.724404 11.194214 -3.132207 0.310249 0.000000 0.000000 0.000000 -2.688466 8.045375 30.518687 -9.290675 5.748200 -3.901324 21.317013 14.969120 -7.582304 0.000000 0.000000 0.000000
-29.119791 67.290059 327.692109 6.240898 -9.189154 -26.383673 1.162086 -0.455843 27.130825 0.088379 -0.160844 0.409520 29.388158 0.635304 -3.771293 0.000000 0.000000 0.000000 7.405088 7.943605 -4.892789 -2.222168 -5.852063 0.555664 -2.856867 -10.866181 1.399636 11.214097 22.250667 -0.388961 0.000000 0.000000 0.000000 0.000000 0.000000 0.000000 97.577863 -10.574658 29.487605 145.864771 8.046080 70.900537 70.679660 -25.827108 51.077502 -20.264270 61.492852 -21.807454 0.000000 0.000000 0.000000 0.000000 0.000000 0.000000 -3.147988 18.603010 25.028602 -15.912386 -6.447233 -1.850707 12.442350 -3.307035 0.262036 0.000000 0.000000 0.000000 -3.504695 8.409756 28.782943 -8.499338 5.458229 -3.705458 29.357397 16.138132 -12.850044 0.000000 0.000000 0.000000
-29.853546 66.934343 327.831185 5.476668 -9.696901 -23.927176 1.410226 -0.347590 24.590799 0.150767 -0.042919 0.379003 28.909235 -0.068330 -2.788713 0.000000 0.000000 0.000000 7.745309 7.570390 -4.730745 -2.808579 -6.140590 0.274802 -2.755275 -10.413498 1.352278 8.458921 22.382066 0.324562 0.000000 0.000000 0.000000 0.000000 0.000000 0.000000 98.989395 -13.577147 32.875341 145.823349 3.288098 72.253927 72.755787 -20.969244 48.384254 -36.137825 57.479165 -12.050220 0.000000 0.000000 0.000000 0.000000 0.000000 0.000000 -0.343142 20.657768 21.977269 -17.868867 -6.777434 -2.246049 13.977883 -3.965169 -0.019623 0.000000 0.000000 0.000000 -1.970773 9.454223 26.334896 -8.797585 5.530350 -3.865446 27.760898 17.100352 -12.143468 0.000000 0.000000 0.000000
-30.128078 66.381934 327.885265 5.443896 -10.004009 -24.178549 1.057836 -0.423728 24.869782 0.099323 0.138140 0.348905 28.506171 -1.136109 -1.565089 0.000000 0.000000 0.000000 7.915267 6.694718 -4.363616 -3.667666 -5.997348 -0.058656 -2.761446 -9.380201 1.221521 4.329775 21.739947 1.478018 0.000000 0.000000 0.000000 0.000000 0.000000 0.000000 99.630466 -16.325251 35.881766 146.233854 -0.651927 73.839844 74.055131 -17.019865 46.889353 -44.385644 52.814579 -8.961497 0.000000 0.000000 0.000000 0.000000 0.000000 0.000000 0.056407 21.118013 22.171114 -18.434777 -6.751432 -2.347801 14.119940 -3.706189 0.056837 0.000000 0.000000 0.000000 -2.301563 9.651905 26.561048 -8.198998 5.362515 -3.757699 20.324496 17.992866 -7.652679 0.000000 0.000000 0.000000
-30.072939 66.088066 327.871093 5.879435 -10.356126 -27.498434 0.539469 -0.489983 28.285624 -0.006990 0.141626 0.346311 27.597199 -1.838237 -0.585453 0.000000 0.000000 0.000000 7.673140 5.985695 -3.959278 -4.778111 -5.624433 -0.364122 -2.089588 -7.923892 1.093141 -0.572941 20.374345 2.600286 0.000000 0.000000 0.000000 0.000000 0.000000 0.000000 99.827929 -18.710636 38.169123 146.418599 -3.655173 75.698221 74.712041 -15.133097 46.575266 -48.536516 50.467767 -8.227713 0.000000 0.000000 0.000000 0.000000 0.000000 0.000000 -1.545403 20.333382 26.034248 -18.038414 -6.124400 -2.247330 12.272532 -2.281195 0.688704 0.000000 0.000000 0.000000 -4.457659 9.687922 29.836332 -6.890829 4.637480 -3.454319 16.941094 19.327556 -5.762722 0.000000 0.000000 0.000000
-29.677624 66.051667 327.801268 6.721682 -10.729836 -32.651738 -0.044123 -0.595855 33.591200 -0.184905 0.041044 0.368345 26.422204 -2.353958 0.230162 0.000000 0.000000 0.000000 7.183467 4.707691 -3.379163 -5.587271 -4.453690 -0.776277 -2.974728 -5.541645 1.070140 0.484214 17.807357 2.386131 0.000000 0.000000 0.000000 0.000000 0.000000 0.000000 98.717301 -19.823569 38.370509 146.085431 -4.539599 77.269659 73.875485 -14.798618 48.198170 -46.907961 46.230367 -11.695627 0.000000 0.000000 0.000000 0.000000 0.000000 0.000000 -4.458381 18.076454 32.096956 -16.792995 -4.696655 -2.074035 10.179423 -1.132812 1.341111 0.000000 0.000000 0.000000 -7.884090 9.146508 34.901175 -5.047649 3.468266 -2.956267 7.404581 15.208338 -0.308922 0.000000 0.000000 0.000000
-29.071771 66.403254 327.651627 7.816652 -11.076715 -39.499602 -0.630733 -0.812839 40.624391 -0.423172 -0.127536 0.407177 25.399348 -2.782438 0.888152 0.000000 0.000000 0.000000 6.677640 3.578747 -2.893065 -6.836601 -3.206656 -1.000744 -3.206730 -3.670539 0.994808 2.561370 14.095656 1.870350 0.000000 0.000000 0.000000 0.000000 0.000000 0.000000 96.627973 -18.135345 35.205261 146.230838 -2.515269 75.612817 74.563286 -10.732208 47.564470 -50.776966 46.103133 -11.437892 0.000000 0.000000 0.000000 0.000000 0.000000 0.000000 -7.730417 14.174337 39.900638 -14.839200 -2.591530 -1.893766 8.095272 -0.434672 1.841183 0.000000 0.000000 0.000000 -12.025059 7.822738 41.526843 -3.101450 1.967046 -2.386980 2.824275 13.170832 2.018896 0.000000 0.000000 0.000000
-28.381279 66.839346 327.413235 8.915669 -11.262189 -44.711138 -0.960192 -1.126641 46.011017 -0.684241 -0.344692 0.460152 24.220545 -2.921334 1.304195 0.000000 0.000000 0.000000 5.761189 2.985448 -2.469059 -7.678063 -2.331434 -1.157834 -4.802506 -1.432158 1.014206 6.450591 12.860691 1.655764 0.000000 0.000000 0.000000 0.000000 0.000000 0.000000 95.123756 -15.571904 31.627618 146.557668 0.460168 73.046307 74.788997 -7.057638 46.441734 -39.920573 53.313128 -18.440787 0.000000 0.000000 0.000000 0.000000 0.000000 0.000000 -9.698542 9.945981 45.740455 -13.045021 -0.317816 -1.860889 7.401288 -0.533226 1.953722 0.000000 0.000000 0.000000 -15.502820 5.749207 46.273125 -1.055497 0.566636 -1.681024 -9.006425 6.800814 8.059772 0.000000 0.000000 0.000000
-27.672273 67.347837 327.120414 9.934148 -11.295370 -48.510383 -1.055704 -1.407332 49.960020 -0.936406 -0.558362 0.520307 22.645872 -3.080961 1.795831 0.000000 0.000000 0.000000 4.571740 2.687369 -2.079938 -8.193199 -1.588290 -1.265625 -5.855915 -0.304990 0.946110 9.423043 13.550610 1.730213 0.000000 0.000000 0.000000 0.000000 0.000000 0.000000 93.600499 -12.422059 27.609108 147.829505 4.296219 69.532126 75.019890 -4.906228 45.001662 -11.751422 57.303284 -36.526986 0.000000 0.000000 0.000000 0.000000 0.000000 0.000000 -10.773663 5.999424 49.939771 -11.386099 1.719080 -1.886301 7.296215 -0.834571 1.950280 0.000000 0.000000 0.000000 -18.060068 3.415939 49.461721 0.783914 -0.443259 -1.006526 -13.590932 3.795780 9.918498 0.000000 0.000000 0.000000
-27.092030 67.775971 326.843917 10.673724 -11.228482 -50.956908 -0.971045 -1.524559 52.501812 -1.099802 -0.723193 0.574263 20.972693 -3.009444 2.071740 0.000000 0.000000 0.000000 3.165492 2.626442 -1.712576 -7.925742 -1.201996 -1.454728 -6.618525 -0.360753 0.790340 11.210289 14.061117 1.758729 0.000000 0.000000 0.000000 0.000000 0.000000 0.000000 94.504580 -10.925024 26.529305 147.288149 5.486329 67.767012 74.697918 -4.367791 44.129217 -12.219190 49.032005 -34.047113 0.000000 0.000000 0.000000 0.000000 0.000000 0.000000 -11.274418 3.044154 52.603921 -10.112679 3.146997 -1.925004 8.055725 -1.242928 1.779382 0.000000 0.000000 0.000000 -19.645691 1.395785 51.316439 2.277847 -1.141218 -0.418006 -14.866596 3.576421 10.342712 0.000000 0.000000 0.000000
-26.813682 67.978058 326.612255 10.852100 -11.091857 -51.107721 -0.716294 -1.357038 52.652338 -1.145858 -0.811907 0.608220 18.489171 -3.204169 2.721030 0.000000 0.000000 0.000000 1.749864 2.880787 -1.415600 -8.496048 -1.261949 -1.463124 -2.638604 2.198419 1.038469 9.567420 9.852458 1.456662 0.000000 0.000000 0.000000 0.000000 0.000000 0.000000 94.226020 -10.153368 25.729382 146.983900 6.044180 66.970228 74.676118 -5.207279 44.680052 -5.896596 48.246990 -37.291903 0.000000 0.000000 0.000000 0.000000 0.000000 0.000000 -11.118559 2.074476 52.858806 -9.790166 3.872834 -1.992448 9.106079 -1.963042 1.397959 0.000000 0.000000 0.000000 -19.980917 0.572663 51.194617 3.029204 -1.301956 -0.099950 -12.867613 8.125952 9.934172 0.000000 0.000000 0.000000
-26.929567 67.924350 326.452631 10.345974 -10.899131 -50.145916 -0.222424 -0.962809 51.584251 -1.102111 -0.791419 0.612635 15.799479 -3.326747 3.333611 0.000000 0.000000 0.000000 0.574147 2.855840 -1.065580 -8.171943 -0.825478 -1.561180 1.742570 0.983543 0.711423 6.865381 9.604575 1.225159 0.000000 0.000000 0.000000 0.000000 0.000000 0.000000 92.744975 -10.284043 25.365287 147.584031 6.216901 67.265953 74.540127 -7.095228 46.142422 1.848362 39.221154 -39.227642 0.000000 0.000000 0.000000 0.000000 0.000000 0.000000 -10.108291 2.836764 51.966194 -10.413531 4.183612 -2.098620 10.294291 -2.600562 0.998065 0.000000 0.000000 0.000000 -19.394313 1.033276 50.280180 3.150434 -1.399277 -0.008348 -11.227230 6.420331 8.357639 0.000000 0.000000 0.000000
-27.555641 67.428971 326.328067 9.064024 -10.619826 -46.606091 0.537771 -0.367722 47.812634 -0.951317 -0.611890 0.578532 13.175522 -3.686312 4.042484 0.000000 0.000000 0.000000 0.210746 2.587430 -0.880535 -7.718728 -0.449597 -1.622194 5.886785 0.889323 0.753614 2.317514 7.134027 0.928471 0.000000 0.000000 0.000000 0.000000 0.000000 0.000000 90.232040 -11.822073 26.053581 148.924321 5.432851 69.214833 73.501009 -9.824632 49.038818 -2.522774 26.244472 -34.662302 0.000000 0.000000 0.000000 0.000000 0.000000 0.000000 -7.901988 5.800184 48.348810 -12.404051 4.055901 -2.299579 11.931761 -3.565120 0.530884 0.000000 0.000000 0.000000 -16.916638 2.804412 47.222596 2.374444 -0.575802 -0.328893 -10.082126 5.033705 7.250234 0.000000 0.000000 0.000000
